<svg t="1567494436639" class="icon" viewBox="0 0 1024 1024" version="1.1" xmlns="http://www.w3.org/2000/svg" p-id="109618" data-spm-anchor-id="a313x.7781069.0.i102" height="500" width="500"><path d="M909.04381 800.572952v75.142096l-127.390477-127.390477-32.768 32.768 127.439238 127.414858h-76.726857l0.024381 46.34819 155.769905-0.073143v-154.209524z" fill="#515151" p-id="109619" data-spm-anchor-id="a313x.7781069.0.i101" class=""></path><path d="M626.590476 323.145143V219.331048H300.422095v595.139047h257.097143l173.787429-173.787428-0.902096-317.537524H626.590476z m-236.934095 242.95619c7.899429 0 20.74819-0.999619 30.817524-2.755047l4.656762-0.828953 2.876952 23.722667-3.925333 0.902095a177.005714 177.005714 0 0 1-35.05981 3.754667c-35.08419 0-50.688-15.774476-50.688-44.202667V487.131429c0-28.40381 15.60381-44.202667 50.688-44.202667 10.435048 0 25.014857 1.462857 35.05981 3.730286l3.925333 0.902095-2.876952 23.722667-4.656762-0.804572a201.411048 201.411048 0 0 0-30.817524-2.755048c-20.333714 0-24.892952 4.705524-24.892952 20.406858v57.539047c-0.024381 15.676952 4.559238 20.431238 24.892952 20.431238z m111.713524 24.771048c-13.385143 0-29.598476-2.511238-41.813334-7.41181l-3.437714-1.414095 4.534857-22.747428 4.754286 1.511619c11.946667 3.705905 24.478476 5.656381 36.352 5.656381 19.797333 0 21.650286-4.193524 21.650286-16.579048 0-4.510476-0.024381-7.728762-0.414476-10.191238-0.365714-2.169905-0.926476-3.291429-1.828572-4.169143-2.389333-2.364952-7.753143-4.120381-22.211048-7.411809-34.474667-7.704381-39.984762-15.676952-39.984761-45.909334 0-26.550857 12.336762-39.326476 47.640381-39.326476 12.068571 0 26.453333 1.633524 37.619809 4.583619l3.681524 0.975238-2.29181 23.673905-4.949333-1.121524a158.671238 158.671238 0 0 0-33.670095-3.730286c-20.504381 0-21.650286 3.267048-21.650286 15.555048 0 4.632381 0.024381 7.899429 0.365714 10.361905 0.341333 2.169905 0.877714 3.218286 1.682286 4.022857 2.218667 2.267429 7.265524 3.876571 21.308952 7.411809 37.473524 9.313524 41.081905 16.11581 41.081905 44.885334 0.024381 26.038857-8.923429 41.374476-48.420571 41.374476z m147.041524-2.023619h-29.988572l-47.542857-143.896381h26.258286l36.278857 109.884952 36.230095-109.884952h26.282667l-47.518476 143.896381z" fill="#ffffff" p-id="109620" data-spm-anchor-id="a313x.7781069.0.i100" class=""></path><path d="M771.85219 323.388952l-41.691428-41.691428H668.038095V219.574857l-41.667047-41.667047H258.974476v677.985523h257.121524l41.423238-41.423238H300.422095V219.331048H626.590476v103.814095h103.814095l0.902096 317.537524 41.350095-41.325715z" fill="#515151" p-id="109621" data-spm-anchor-id="a313x.7781069.0.i103" class=""></path><path d="M389.656381 467.69981c7.899429 0 20.74819 0.975238 30.817524 2.755047l4.656762 0.804572 2.876952-23.722667-3.925333-0.902095a178.834286 178.834286 0 0 0-35.05981-3.730286c-35.08419 0-50.688 15.774476-50.688 44.202667v59.562666c0 28.40381 15.60381 44.202667 50.688 44.202667 10.435048 0 25.014857-1.462857 35.05981-3.754667l3.925333-0.902095-2.876952-23.722667-4.656762 0.828953a204.55619 204.55619 0 0 1-30.817524 2.755047c-20.333714 0-24.892952-4.729905-24.892952-20.431238v-57.539047c-0.024381-15.676952 4.559238-20.406857 24.892952-20.406857zM508.732952 504.636952c-14.043429-3.535238-19.090286-5.144381-21.308952-7.411809-0.804571-0.804571-1.365333-1.852952-1.682286-4.022857a83.577905 83.577905 0 0 1-0.365714-10.361905c0-12.288 1.145905-15.555048 21.650286-15.555048 10.825143 0 23.235048 1.365333 33.670095 3.730286l4.949333 1.121524 2.29181-23.673905-3.681524-0.975238a158.159238 158.159238 0 0 0-37.61981-4.583619c-35.303619 0-47.640381 12.775619-47.64038 39.326476 0 30.232381 5.510095 38.180571 39.984761 45.909333 14.457905 3.291429 19.821714 5.046857 22.211048 7.41181 0.902095 0.877714 1.487238 1.999238 1.828571 4.169143 0.390095 2.462476 0.414476 5.680762 0.414477 10.191238 0 12.385524-1.852952 16.579048-21.650286 16.579048-11.873524 0-24.405333-1.950476-36.352-5.656381l-4.754286-1.511619-4.534857 22.747428 3.437714 1.414095c12.214857 4.900571 28.42819 7.41181 41.813334 7.41181 39.497143 0 48.444952-15.335619 48.444952-41.350095-0.024381-28.793905-3.608381-35.59619-41.106286-44.909715zM633.417143 554.837333l-36.303238-109.884952h-26.258286l47.567238 143.896381h29.988572l47.518476-143.896381h-26.282667z" fill="#515151" p-id="109622" data-spm-anchor-id="a313x.7781069.0.i105" class="selected"></path></svg>