<svg t="1566970478271" class="icon" viewBox="0 0 1024 1024" version="1.1" xmlns="http://www.w3.org/2000/svg" p-id="22253" height="500" width="500"><path d="M790.2976 639.89248H711.7312v156.2624c0 21.632-17.2288 39.34208-38.85056 39.34208H359.64928c-21.632 0-39.42912-17.71008-39.42912-39.34208v-156.2624H242.23232c-21.632 0-39.72096-17.72032-39.72096-39.35232V404.84864c0-21.62176 18.0992-38.55872 39.72096-38.55872h548.1728c21.632 0 39.04 17.03936 39.04 38.55872v195.69664c-0.01536 21.53984-17.52576 39.3472-39.14752 39.3472z m-116.82816-117.81632H359.95136v273.6896h313.51808v-273.6896z m77.69088-117.31456c-21.632 0-39.1424 17.52064-39.1424 39.1424s17.52064 39.12704 39.1424 39.12704 39.1424-17.50528 39.1424-39.12704c-0.00512-21.53472-17.52064-39.1424-39.1424-39.1424zM555.7504 600.064H398.19776v-38.26176h157.54752v38.26176h0.00512z m77.98784 79.54944H398.208v-39.72096h235.53024v39.72096z m0 77.99296H398.208v-39.72096h235.53024v39.72096z m39.7312-509.11744H359.95136v77.99296h-39.7312V248.28928c0-21.62688 17.81248-39.53152 39.42912-39.53152h313.23136c21.62176 0 38.85056 17.90464 38.85056 39.53152v78.19264h-38.26176V248.48896z" fill="#515151" p-id="22254"></path></svg>