<svg t="1567499271303" class="icon" viewBox="0 0 1024 1024" version="1.1" xmlns="http://www.w3.org/2000/svg" p-id="114020" width="500" height="500"><path d="M731.420444 438.840889c0-80.554667-28.615111-149.447111-85.902222-206.677333-57.230222-57.230222-126.122667-85.902222-206.677333-85.902223s-149.447111 28.672-206.677333 85.902223c-57.230222 57.230222-85.902222 126.122667-85.902223 206.677333s28.672 149.447111 85.902223 206.734222c57.230222 57.230222 126.122667 85.902222 206.677333 85.902222s149.447111-28.672 206.734222-85.902222c57.230222-57.287111 85.902222-126.179556 85.902222-206.734222zM1024 945.208889c0 21.333333-7.793778 39.822222-23.381333 55.409778a75.662222 75.662222 0 0 1-55.409778 23.381333c-22.129778 0-40.618667-7.793778-55.352889-23.381333l-211.057778-210.488889a421.376 421.376 0 0 1-245.589333 76.344889c-58.595556 0-114.744889-11.377778-168.277333-34.133334a433.152 433.152 0 0 1-138.467556-92.330666A433.152 433.152 0 0 1 34.133333 601.543111C11.377778 548.010667 0 491.918222 0 433.208889c0-58.595556 11.377778-114.744889 34.133333-168.277333 22.755556-53.532444 53.532444-99.726222 92.330667-138.467556A433.152 433.152 0 0 1 264.931556 34.133333C318.464 11.377778 374.556444 0 433.208889 0c58.709333 0 114.801778 11.377778 168.334222 34.133333 53.532444 22.755556 99.669333 53.532444 138.467556 92.330667a433.152 433.152 0 0 1 92.273777 138.467556c22.755556 53.532444 34.133333 109.624889 34.133334 168.277333a421.376 421.376 0 0 1-76.231111 245.532444l211.057777 211.057778c15.189333 15.246222 22.755556 33.678222 22.755556 55.409778z" p-id="114021" fill="#ffffff"></path></svg>